<svg preserveAspectRatio="none" width="100%" height="100%" overflow="visible" style="display: block;" viewBox="0 0 1056 101" fill="none" xmlns="http://www.w3.org/2000/svg">
<path id="Vector 918" d="M0 0V92.4997C0 96.9165 3.57943 100.498 7.99622 100.5L1056 101V75.5C1038.67 72.6769 987.866 61.8361 970 61.5L867 49C768.927 40.4298 769.762 33.7769 727.568 33.7769C693.812 33.7769 598.704 27.3912 555.369 24.1983L498.35 23.6942C434.488 18.0479 375.188 15.6281 353.521 15.124C323.49 15.7961 255.447 16.0314 223.516 11.595C191.585 7.15868 144.069 5.37741 124.302 5.04132C70.476 5.44463 19.0065 1.84849 0 0Z" fill="url(#paint0_linear_0_30)"/>
<defs>
<linearGradient id="paint0_linear_0_30" x1="0" y1="50.5" x2="1056" y2="50.5" gradientUnits="userSpaceOnUse">
<stop stop-color="#685EDE"/>
<stop offset="1" stop-color="#CAC5F9"/>
</linearGradient>
</defs>
</svg>
